<?xml version="1.0" encoding="utf-8"?>
<!-- Generator: Adobe Illustrator 22.1.0, SVG Export Plug-In . SVG Version: 6.00 Build 0)  -->
<svg version="1.1" id="Layer_1" xmlns="http://www.w3.org/2000/svg" xmlns:xlink="http://www.w3.org/1999/xlink" x="0px" y="0px"
	 viewBox="0 0 24 24" style="enable-background:new 0 0 24 24;" xml:space="preserve">
<style type="text/css">
	.st0{fill:#FFFFFF;}
	.st1{fill:none;}
</style>
<path class="st0" d="M12,2C6.5,2,2,6.5,2,12s4.5,10,10,10s10-4.5,10-10S17.5,2,12,2z M15.6,8.3c1.1,0,1.9,0.9,1.9,1.9
	s-0.9,1.9-1.9,1.9s-1.9-0.9-1.9-1.9C13.7,9.2,14.5,8.3,15.6,8.3z M9.6,6.8c1.3,0,2.4,1.1,2.4,2.4s-1.1,2.4-2.4,2.4s-2.4-1.1-2.4-2.4
	C7.2,7.8,8.3,6.8,9.6,6.8z M9.6,15.9v3.7c-2.4-0.8-4.3-2.6-5.1-5c1-1.1,3.7-1.7,5.1-1.7c0.5,0,1.2,0.1,1.9,0.2
	C9.9,14.1,9.6,15.2,9.6,15.9z M12,20c-0.3,0-0.5,0-0.8,0v-4.1c0-1.4,2.9-2.1,4.4-2.1c1.1,0,2.9,0.4,3.8,1.1C18.3,17.9,15.4,20,12,20
	z"/>
<path class="st1" d="M0,0h24v24H0V0z"/>
</svg>
