<?xml version="1.0" encoding="utf-8"?>
<svg version="1.1" id="Layer_1" xmlns="http://www.w3.org/2000/svg" xmlns:xlink="http://www.w3.org/1999/xlink" x="0px" y="0px"
	 viewBox="0 0 186 29" style="enable-background:new 0 0 186 29;" xml:space="preserve">
<style type="text/css">
	.st0{fill:#FFFFFF;}
	.st1{fill:#00FF22;}
</style>
<g>
	<path class="st0" d="M13.8,18.2H2.3V0.8h11.5v2.1H4.7v4.8h9.2v2.1H4.7v6.5h9.2V18.2z"/>
	<path class="st0" d="M30.8,0.8l-6,8.6l6,8.8h-2.7l-4.8-7.2l-4.9,7.2H16l6.1-8.7l-5.9-8.7h2.7l4.7,7.1l4.8-7.1H30.8z"/>
	<path class="st0" d="M47.3,17c-0.4,0.2-0.8,0.4-1.2,0.5s-0.8,0.3-1.4,0.5c-0.5,0.1-1,0.3-1.6,0.4s-1.2,0.2-1.8,0.2
		c-1.3,0-2.4-0.2-3.5-0.5s-1.9-0.9-2.7-1.7c-0.8-0.7-1.3-1.7-1.8-2.8s-0.6-2.5-0.6-4c0-1.4,0.2-2.7,0.6-3.9s1-2.1,1.8-2.9
		C36,2,36.9,1.5,37.9,1.1s2.2-0.6,3.5-0.6c0.9,0,1.9,0.1,2.8,0.3s2,0.6,3.1,1.2v2.8h-0.2c-1-0.8-1.9-1.4-2.9-1.8s-2-0.6-3-0.6
		c-0.9,0-1.7,0.1-2.4,0.4S37.5,3.6,37,4.2c-0.5,0.6-1,1.3-1.3,2.2s-0.5,1.9-0.5,3.1c0,1.2,0.2,2.3,0.5,3.2s0.8,1.6,1.3,2.2
		c0.5,0.6,1.2,1,1.9,1.3s1.5,0.4,2.3,0.4c1.1,0,2.2-0.2,3.1-0.6s1.9-1,2.7-1.7h0.2V17z"/>
	<path class="st0" d="M63.9,18.2h-2.3V9.7h-8.7v8.5h-2.3V0.8h2.3v6.8h8.7V0.8h2.3V18.2z"/>
	<path class="st0" d="M82.4,18.2h-2.5l-1.7-4.9h-7.5L69,18.2h-2.4l6.4-17.4H76L82.4,18.2z M77.5,11.4l-3.1-8.6l-3.1,8.6H77.5z"/>
	<path class="st0" d="M98.4,18.2h-2.9L87.2,2.6v15.6H85V0.8h3.6L96.2,15V0.8h2.2V18.2z"/>
	<path class="st0" d="M117.6,17c-1,0.4-2,0.8-3.1,1.1s-2.2,0.5-3.3,0.5c-1.4,0-2.6-0.2-3.7-0.6s-2.1-0.9-2.9-1.7
		c-0.8-0.8-1.4-1.7-1.9-2.8s-0.7-2.5-0.7-4c0-2.8,0.8-5,2.4-6.6s3.9-2.4,6.7-2.4c1,0,2,0.1,3,0.4s2.2,0.6,3.3,1.2v2.8h-0.2
		c-0.2-0.2-0.6-0.4-1.1-0.7s-0.9-0.6-1.4-0.8c-0.5-0.2-1.2-0.4-1.8-0.6s-1.5-0.2-2.3-0.2c-2,0-3.5,0.6-4.6,1.9s-1.7,3-1.7,5.1
		c0,2.3,0.6,4,1.8,5.3s2.8,1.9,4.9,1.9c0.8,0,1.5-0.1,2.2-0.2s1.4-0.3,2-0.6v-4.3h-4.7v-2h7V17z"/>
	<path class="st0" d="M133.1,18.2h-11.5V0.8h11.5v2.1h-9.2v4.8h9.2v2.1h-9.2v6.5h9.2V18.2z"/>
	<path class="st0" d="M140.2,18.2h-2.8v-3.3h2.8V18.2z"/>
	<path class="st1" d="M164.4,18.2h-2.2v-7.5c0-0.6,0-1.1-0.1-1.6s-0.2-0.9-0.3-1.3c-0.2-0.3-0.4-0.6-0.8-0.8s-0.8-0.3-1.5-0.3
		c-0.6,0-1.2,0.2-1.9,0.5s-1.2,0.7-1.9,1.2c0,0.2,0,0.4,0.1,0.6s0,0.5,0,0.7v8.4h-2.2v-7.5c0-0.6,0-1.1-0.1-1.6s-0.2-0.9-0.3-1.2
		c-0.2-0.3-0.4-0.6-0.8-0.8s-0.8-0.3-1.5-0.3c-0.6,0-1.2,0.1-1.8,0.4s-1.2,0.7-1.8,1.1v9.8h-2.2V5.2h2.2v1.5c0.7-0.6,1.4-1,2.1-1.3
		s1.4-0.5,2.2-0.5c0.9,0,1.6,0.2,2.3,0.6s1.1,0.9,1.4,1.6c0.9-0.8,1.7-1.3,2.4-1.6s1.5-0.5,2.4-0.5c1.4,0,2.5,0.4,3.2,1.3
		s1,2.1,1,3.7V18.2z"/>
	<path class="st1" d="M179.6,11.9H170c0,0.8,0.1,1.5,0.4,2.1s0.6,1.1,1,1.5c0.4,0.4,0.9,0.7,1.4,0.8s1.2,0.3,1.8,0.3
		c0.9,0,1.8-0.2,2.7-0.5s1.5-0.7,1.9-1h0.1v2.4c-0.7,0.3-1.5,0.6-2.3,0.8s-1.6,0.3-2.4,0.3c-2.2,0-3.9-0.6-5.1-1.8s-1.8-2.8-1.8-5
		c0-2.1,0.6-3.8,1.8-5.1s2.7-1.9,4.6-1.9c1.8,0,3.1,0.5,4.1,1.5s1.4,2.5,1.4,4.4V11.9z M177.5,10.2c0-1.2-0.3-2.1-0.9-2.7
		s-1.4-0.9-2.6-0.9c-1.2,0-2.1,0.3-2.8,1s-1.1,1.6-1.2,2.6H177.5z"/>
</g>
</svg>
